<?xml version="1.0" encoding="UTF-8"?>
<!DOCTYPE svg PUBLIC "-//W3C//DTD SVG 1.0//EN" "http://www.w3.org/TR/2001/REC-SVG-20010904/DTD/svg10.dtd">
<!-- Creator: CorelDRAW 2020 (64 Bit) -->
<svg xmlns="http://www.w3.org/2000/svg" xml:space="preserve" width="108.372mm" height="57.652mm" version="1.0" shape-rendering="geometricPrecision" text-rendering="geometricPrecision" image-rendering="optimizeQuality" fill-rule="evenodd" clip-rule="evenodd"
viewBox="0 0 10837.24 5765.2"
 xmlns:xlink="http://www.w3.org/1999/xlink"
 xmlns:xodm="http://www.corel.com/coreldraw/odm/2003">
 <defs>
    <linearGradient id="id0" gradientUnits="userSpaceOnUse" x1="3511.01" y1="571.04" x2="1080.43" y2="2950.45">
     <stop offset="0" stop-opacity="1" stop-color="#36398F"/>
     <stop offset="1" stop-opacity="1" stop-color="#32B768"/>
    </linearGradient>
    <linearGradient id="id1" gradientUnits="userSpaceOnUse" x1="10269.91" y1="995.21" x2="8016.97" y2="2520.76">
     <stop offset="0" stop-opacity="1" stop-color="#36398F"/>
     <stop offset="1" stop-opacity="1" stop-color="#32B768"/>
    </linearGradient>
    <linearGradient id="id2" gradientUnits="userSpaceOnUse" x1="6030.5" y1="1234.89" x2="4634.62" y2="1800.13">
     <stop offset="0" stop-opacity="1" stop-color="#36398F"/>
     <stop offset="1" stop-opacity="1" stop-color="#32B768"/>
    </linearGradient>
    <linearGradient id="id3" gradientUnits="userSpaceOnUse" x1="6750.16" y1="2615.04" x2="5354.28" y2="2049.8">
     <stop offset="0" stop-opacity="1" stop-color="#36398F"/>
     <stop offset="1" stop-opacity="1" stop-color="#32B768"/>
    </linearGradient>
 </defs>
 <g id="Camada_x0020_1">
  <metadata id="CorelCorpID_0Corel-Layer"/>
  <g id="_1617546803136">
   <path fill="#36398F" fill-rule="nonzero" d="M644.57 5764.66c164.98,0 329.95,-63.45 454.31,-187.81 73.6,-73.61 73.6,-192.89 0,-266.49 -73.6,-73.61 -192.89,-73.61 -266.49,0 -104.06,104.05 -271.57,104.05 -375.63,0 -50.76,-50.76 -78.68,-116.75 -78.68,-187.82 0,-71.06 27.92,-137.05 78.68,-187.81 104.06,-104.06 271.57,-104.06 375.63,0 73.6,73.6 192.89,73.6 266.49,0 73.6,-73.6 73.6,-192.89 0,-266.49 -251.26,-251.26 -659.88,-251.26 -911.15,0 -121.82,121.82 -187.81,284.26 -187.81,456.84 0,172.59 65.99,335.02 187.81,456.84 124.37,124.37 289.34,187.82 454.31,187.82l2.53 -5.08z"/>
   <path id="1" fill="#36398F" fill-rule="nonzero" d="M2408.49 4477.89c-60.91,0 -116.75,30.46 -152.28,76.14 -91.37,-45.68 -195.43,-73.6 -304.56,-73.6 -355.32,0 -644.66,289.33 -644.66,643.38 0,354.05 289.34,643.39 644.66,643.39 109.13,0 213.19,-27.92 304.56,-76.14 35.53,45.68 91.37,76.14 152.28,76.14 104.06,0 187.81,-83.76 187.81,-187.81l0 -908.61c0,-104.06 -83.75,-187.82 -187.81,-187.82l0 -5.07zm-454.31 913.68c-147.2,0 -266.49,-118.44 -266.49,-265.22 0,-146.78 119.29,-265.22 266.49,-265.22 147.21,0 266.5,118.44 266.5,265.22 0,146.78 -119.29,265.22 -266.5,265.22z"/>
   <path id="2" fill="#36398F" fill-rule="nonzero" d="M3317.09 5757.05c441.62,0 507.61,-271.57 507.61,-434 0,-274.11 -269.03,-398.47 -517.76,-398.47 -50.76,0 -129.44,-15.23 -162.43,-33 0,-10.15 2.54,-15.22 2.54,-15.22 5.07,-5.08 43.14,-27.92 147.2,-27.92 144.67,0 241.11,53.3 241.11,53.3l0 0c88.83,53.29 205.58,25.38 258.88,-63.45 53.3,-88.83 25.38,-205.58 -63.45,-258.88 -17.77,-10.15 -185.27,-106.6 -436.54,-106.6 -492.37,0 -530.44,332.48 -530.44,434 0,274.11 281.72,398.47 543.13,398.47 50.76,0 116.75,15.23 142.13,30.46 0,15.22 -2.54,22.84 -2.54,27.91 -10.15,5.08 -43.14,17.77 -124.36,17.77 -154.82,0 -274.1,-58.37 -279.18,-60.91 -91.37,-48.22 -205.58,-12.69 -253.8,78.68 -48.22,93.9 -12.69,208.11 81.21,256.34 20.31,10.15 203.05,101.52 451.77,101.52l-5.08 0z"/>
   <path id="3" fill="#36398F" fill-rule="nonzero" d="M4662.24 4480.43c-93.9,0 -182.73,20.3 -263.95,58.37l0 -423c0,-104.48 -83.75,-188.66 -187.81,-188.66 -104.06,0 -187.82,84.18 -187.82,188.66l0 1463.59c0,104.05 83.76,187.81 187.82,187.81 104.06,0 187.81,-83.76 187.81,-187.81l0 -454.31c0,-147.2 119.29,-266.49 266.49,-266.49 147.21,0 266.49,119.29 266.49,266.49l0 454.31c0,104.05 83.76,187.81 187.81,187.81 104.06,0 187.82,-83.76 187.82,-187.81l0 -454.31c0,-355.32 -289.34,-644.65 -644.66,-644.65z"/>
   <path id="4" fill="#36398F" fill-rule="nonzero" d="M6108.9 4480.43c-93.9,0 -182.73,20.3 -263.95,58.37l0 -423c0,-104.48 -83.75,-188.66 -187.81,-188.66 -104.06,0 -187.81,84.18 -187.81,188.66l0 1461.05c0,104.06 83.75,187.81 187.81,187.81 60.91,0 114.21,-30.46 149.74,-76.14 91.37,48.22 195.43,76.14 304.56,76.14 355.32,0 644.66,-289.33 644.66,-643.39 0,-354.05 -289.34,-643.38 -644.66,-643.38l-2.54 2.54zm2.54 903.53c-147.2,0 -266.49,-118.44 -266.49,-265.22 0,-146.79 119.29,-265.23 266.49,-265.23 147.21,0 266.49,118.44 266.49,265.23 0,146.78 -119.28,265.22 -266.49,265.22z"/>
   <path id="5" fill="#36398F" fill-rule="nonzero" d="M7976.88 4477.89c-60.91,0 -116.75,30.46 -152.28,76.14 -91.37,-45.68 -195.43,-73.6 -304.56,-73.6 -355.32,0 -644.66,289.33 -644.66,643.38 0,354.05 289.34,643.39 644.66,643.39 109.13,0 213.19,-27.92 304.56,-76.14 35.53,45.68 91.37,76.14 152.28,76.14 104.06,0 187.81,-83.76 187.81,-187.81l0 -908.61c0,-104.06 -83.75,-187.82 -187.81,-187.82l0 -5.07zm-454.31 913.68c-147.2,0 -266.49,-118.44 -266.49,-265.22 0,-146.78 119.29,-265.22 266.49,-265.22 147.21,0 266.5,118.44 266.5,265.22 0,146.78 -119.29,265.22 -266.5,265.22z"/>
   <path id="6" fill="#36398F" fill-rule="nonzero" d="M8974.31 5764.66c164.98,0 329.95,-63.45 454.31,-187.81 73.6,-73.61 73.6,-192.89 0,-266.49 -73.6,-73.61 -192.89,-73.61 -266.49,0 -104.06,104.05 -271.57,104.05 -375.63,0 -50.76,-50.76 -78.68,-116.75 -78.68,-187.82 0,-71.06 27.92,-137.05 78.68,-187.81 104.06,-104.06 271.57,-104.06 375.63,0 73.6,73.6 192.89,73.6 266.49,0 73.6,-73.6 73.6,-192.89 0,-266.49 -251.26,-251.26 -659.88,-251.26 -911.15,0 -121.82,121.82 -187.81,284.26 -187.81,456.84 0,172.59 65.99,335.02 187.81,456.84 124.37,124.37 289.34,187.82 454.31,187.82l2.53 -5.08z"/>
   <path id="7" fill="#36398F" fill-rule="nonzero" d="M10720.46 5414.41l-497.45 -302.02 497.45 -302.02c88.83,-53.3 116.75,-170.05 63.45,-258.88 -53.3,-88.83 -170.04,-116.75 -258.87,-63.45l-477.15 289.33 0 -662.42c0,-104.05 -83.75,-187.81 -187.81,-187.81 -104.06,0 -187.82,83.76 -187.82,187.81l0 1461.9c0,104.06 83.76,187.81 187.82,187.81 104.06,0 187.81,-83.75 187.81,-187.81l0 -126.9 477.15 289.33c30.45,17.77 63.45,25.38 96.44,25.38 63.45,0 126.9,-32.99 162.43,-91.37 53.3,-88.83 25.38,-205.58 -63.45,-258.88z"/>
   <path fill="url(#id0)" fill-rule="nonzero" d="M3046.76 358.08c-292.68,0 -557.75,104.92 -762.08,281.64 -204.33,-176.72 -469.4,-281.64 -762.08,-281.64 -646.12,0 -1170.74,524.62 -1170.74,1170.73l0 1225.96c0,226.42 182.24,408.65 408.66,408.65 226.41,0 408.65,-182.23 408.65,-408.65l0 -1225.96c0,-198.8 160.15,-358.95 358.95,-358.95 198.8,0 358.95,160.15 358.95,358.95l0 1225.96c0,226.42 182.24,408.65 408.66,408.65 226.41,0 408.65,-182.23 408.65,-408.65l0 -1225.96c0,-198.8 160.15,-358.95 358.95,-358.95 198.81,0 358.95,160.15 358.95,358.95l0 1225.96c0,226.42 182.24,408.65 408.66,408.65 226.41,0 408.65,-182.23 408.65,-408.65l0 -1225.96c0,-646.11 -524.62,-1170.73 -1170.74,-1170.73l-22.09 0z"/>
   <path fill="url(#id1)" fill-rule="nonzero" d="M10087.76 3157.9c220.9,0 397.61,-176.71 397.61,-397.61l0 -1060.29c0,-739.99 -601.93,-1341.92 -1341.93,-1341.92 -739.99,0 -1341.93,601.93 -1341.93,1341.92l0 1060.29c0,220.9 176.72,397.61 397.61,397.61 220.9,0 397.61,-176.71 397.61,-397.61l0 -1060.29c0,-303.72 248.51,-552.23 552.24,-552.23 303.72,0 552.23,248.51 552.23,552.23l0 1060.29c0,220.9 176.71,397.61 397.61,397.61l-11.05 0z"/>
   <path fill="url(#id2)" fill-rule="nonzero" d="M5436.28 2306.27c-135.47,-190.6 -195.25,-423.73 -168.39,-656.32 52.2,-451.06 307.08,-699.12 711.38,-833.03l2.5 23.64 -1.76 246.79c0,77.4 88.38,121.64 150.31,75.21l635.12 -476.31c7.14,-5.35 13.24,-11.47 18.35,-18.13 32.39,-40.11 26.76,-101.38 -16.87,-134.11l-635.12 -476.31c-61.93,-46.43 -150.31,-2.19 -150.31,75.21l0 226.98c-663.29,42.22 -1224.09,554.49 -1303.1,1237.74 -39.87,344.64 48.81,690.12 249.57,972.71 97.92,137.66 261.06,126.64 381.02,41.38 102.59,-72.92 200.2,-202.81 127.3,-305.45z"/>
   <path fill="url(#id3)" fill-rule="nonzero" d="M6756.92 1222.42c135.47,190.6 195.25,423.73 168.39,656.32 -52.2,451.06 -307.08,699.12 -711.38,833.03l-2.5 -23.64 1.76 -246.79c0,-77.4 -88.38,-121.64 -150.31,-75.21l-635.12 476.31c-7.14,5.35 -13.24,11.47 -18.35,18.13 -32.39,40.11 -26.76,101.38 16.87,134.11l635.12 476.31c61.93,46.43 150.31,2.19 150.31,-75.21l0 -226.98c663.29,-42.22 1224.09,-554.49 1303.1,-1237.74 39.87,-344.64 -48.81,-690.12 -249.57,-972.71 -97.92,-137.66 -261.06,-126.64 -381.02,-41.38 -102.59,72.92 -200.2,202.81 -127.3,305.45z"/>
  </g>
 </g>
</svg>
